 http://www.imdb.com/title/tt0015864/

Source: The.Gold.Rush.1925.ORIGINAL.VERSION.BluRay.720p.x264-MySiLU Thanks!

Audio: Silent Subs: None

Sample and Screens included.

General
Complete name                            : The Gold Rush-720p MP4 AAC x264 Original Cut BRRip 1925-CC.mp4
Format                                   : MPEG-4
Format profile                           : Base Media
Codec ID                                 : isom
File size                                : 2.83 GiB
Duration                                 : 1h 29mn
Overall bit rate mode                    : Variable
Overall bit rate                         : 4 534 Kbps
Encoded date                             : UTC 2012-11-21 19:31:29

Video
ID                                       : 1
Format                                   : AVC
Format/Info                              : Advanced Video Codec
Format profile                           : High@L4.1
Format settings, CABAC                   : Yes
Format settings, ReFrames                : 5 frames
Codec ID                                 : avc1
Codec ID/Info                            : Advanced Video Coding
Duration                                 : 1h 29mn
Bit rate                                 : 4 138 Kbps
Maximum bit rate                         : 31.3 Mbps
Width                                    : 960 pixels
Height                                   : 720 pixels
Display aspect ratio                     : 4:3
Frame rate mode                          : Variable
Frame rate                               : 23.976 fps
Minimum frame rate                       : 19.048 fps
Maximum frame rate                       : 24.390 fps
Color space                              : YUV
Chroma subsampling                       : 4:2:0
Bit depth                                : 8 bits
Scan type                                : Progressive
Bits/(Pixel*Frame)                       : 0.250
Stream size                              : 2.58 GiB (91%)
Writing library                          : x264 core 112

Audio
ID                                       : 2
Format                                   : AAC
Format/Info                              : Advanced Audio Codec
Format profile                           : LC
Codec ID                                 : 40
Duration                                 : 1h 29mn
Bit rate mode                            : Variable
Bit rate                                 : 384 Kbps
Maximum bit rate                         : 704 Kbps
Channel(s)                               : 6 channels
Channel positions                        : Front: L C R, Side: L R, LFE
Sampling rate                            : 48.0 KHz
Compression mode                         : Lossy
Delay relative to video                  : 83ms
Stream size                              : 245 MiB (8%)
Language                                 : Silence

Enjoy...

Requested by DreamExtractor 

Coming soon: Donnie Darko, Buffalo 66, The Objective and more...